# xmcd CD database file
#
# Track frame offsets:
#	150
#	11622
#	22135
#	31075
#	44180
#	53580
#	65860
#	76392
#	87797
#	97455
#	107335
#	117632
#
# Disc length: 1730 seconds
#
# Revision: 0
# Processed by: cddbd v1.5.2PL0 Copyright (c) Steve Scherf et al.
# Submitted via: CDex 1.51
#
DISCID=a306c00c
DTITLE=Various Artist - GNP Crescendo Original Surfin' Hits
DYEAR=1963
DGENRE=Surfin' and Hot Rod
TTITLE0=Latinia - The Sentinals
TTITLE1=Blue Soul - The Rhythm Kings
TTITLE2=Swinginh' Piper Soul - The Soul Kings
TTITLE3=Intoxica - Jim Waller and The Deltas
TTITLE4=Surfin' Tragedy - Bob Vaught and The Renagaids
TTITLE5=Soul Beat Part II - Jim Waller and The Deltas
TTITLE6=Exotic - The Rhythm Kings
TTITLE7=Surf Bird - The Breakers
TTITLE8=Pachuko Soul - The Soul Kings
TTITLE9=Tor-Chula - The Sentinals
TTITLE10=Church Key - Dave Myers and The Surftones
TTITLE11=Let's Go Surfin'  - Jim Waller and The Deltas
EXTD=YEAR: 1963
EXTT0=
EXTT1=
EXTT2=
EXTT3=
EXTT4=
EXTT5=
EXTT6=
EXTT7=
EXTT8=
EXTT9=
EXTT10=
EXTT11=
PLAYORDER=
